<svg width="19" height="20" viewBox="0 0 19 20" fill="none" xmlns="http://www.w3.org/2000/svg">
<path d="M7.0769 0.576904C8.93342 0.576904 10.7139 1.3144 12.0267 2.62716C13.3394 3.93991 14.0769 5.72039 14.0769 7.5769C14.0769 9.31075 13.4415 10.9046 12.3969 12.1323L12.6877 12.4231H13.5384L18.9231 17.8077L17.3077 19.4231L11.9231 14.0384V13.1877L11.6323 12.8969C10.3621 13.9811 8.7469 14.5768 7.0769 14.5769C5.22039 14.5769 3.43991 13.8394 2.12716 12.5267C0.814402 11.2139 0.0769043 9.43342 0.0769043 7.5769C0.0769043 5.72039 0.814402 3.93991 2.12716 2.62716C3.43991 1.3144 5.22039 0.576904 7.0769 0.576904ZM7.0769 2.73075C4.3846 2.73075 2.23075 4.8846 2.23075 7.5769C2.23075 10.2692 4.3846 12.4231 7.0769 12.4231C9.76921 12.4231 11.9231 10.2692 11.9231 7.5769C11.9231 4.8846 9.76921 2.73075 7.0769 2.73075Z" fill="black"/>
</svg>
